<?xml version="1.0" encoding="utf-8"?>
<!-- Generator: Adobe Illustrator 16.0.0, SVG Export Plug-In . SVG Version: 6.00 Build 0)  -->
<!DOCTYPE svg PUBLIC "-//W3C//DTD SVG 1.1//EN" "http://www.w3.org/Graphics/SVG/1.1/DTD/svg11.dtd">
<svg version="1.1" xmlns="http://www.w3.org/2000/svg" xmlns:xlink="http://www.w3.org/1999/xlink" x="0px" y="0px" width="100px"
	 height="100px" viewBox="0 0 100 100" enable-background="new 0 0 100 100" xml:space="preserve">
<g id="Layer_1">
</g>
<g id="Layer_2">
	<path d="M68.5,31c-4.617,0.608-9.223,2.054-13.633,3.518c-1.148,0.381-2.638,1.071-3.68,0.128
		c-0.762-0.689-1.436-1.708-1.839-2.649c-0.634-1.479-1.706-2.717-2.828-3.851c-0.242-0.245-0.776-0.162-0.835,0.221
		c-0.272,1.752-0.458,3.509-0.613,5.276c-0.156,1.778-0.432,2.93-2.739,2.857c-1.007-0.032-2.051-0.268-3.051-0.4
		c-1.349-0.178-2.634-0.118-3.983-0.416c-1.939-0.429-1.584-3.832-1.558-5.201c0.038-1.915,0.277-4.111,0.74-5.976
		c0.675-2.72,3.404-2.819,5.665-3.416c2.185-0.577,4.298-1.355,6.508-1.84c5.077-1.115,10.376-0.931,15.511-0.418
		c0.642,0.064,0.636-0.937,0-1c-6.751-0.674-13.33-0.462-19.837,1.56c-1.831,0.568-4.153,0.79-6.015,1.607
		c-0.202-1.895-0.488-3.639,0-5.534c0.563-2.182,2.637-3.569,4.637-4.272c4.795-1.685,7.858,0.844,10.694,4.326
		c0.407,0.5,1.11-0.212,0.707-0.707c-1.408-1.729-2.78-3.376-4.758-4.461c-2.083-1.142-4.742-0.735-6.908-0.123
		c-1.979,0.561-3.645,1.904-4.769,3.594c-1.42,2.136-0.827,4.992-0.584,7.343c0.012,0.116,0.062,0.204,0.125,0.278
		c-0.261,0.16-0.51,0.334-0.737,0.533c-1.398,1.224-1.526,3.631-1.678,5.333c-0.235,2.634-0.905,5.773,0.24,8.268
		c0.834,1.818,4.497,1.329,6,1.521c1.277,0.163,4.992,1.251,5.982-0.181c1.265-1.83,1.096-4.877,1.271-7.239
		c1.212,1.44,2.148,3.076,3.032,4.739c0.444,0.836,1.645,1.748,2.619,1.748c2.149,0,4.488-1.226,6.546-1.799
		C61.96,33.468,65.167,32.439,68.5,32C69.13,31.917,69.138,30.916,68.5,31z"/>
	<path d="M71.834,48c-0.223,2.306-0.478,4.351-2.082,6.128c-1.292,1.431-3.001,2.697-4.586,3.763
		c-3.89,2.615-9.302,3.056-13.746,1.95C41.999,57.495,40.885,46.972,40,39c-0.07-0.634-1.071-0.641-1,0
		c0.558,5.025,0.874,10.432,3.402,14.919c2.198,3.903,6.065,6.303,10.336,7.258c4.502,1.007,9.833-0.339,13.592-2.866
		c1.603-1.077,3.465-2.482,4.623-4.037c1.401-1.882,1.661-4,1.881-6.273C72.896,47.358,71.896,47.364,71.834,48z"/>
	<path d="M78.55,14.588c-1.335-4.413-4.736-5.84-8.779-5.739c-0.071-0.016-0.149-0.02-0.236,0.002
		c-0.007,0.002-0.014,0.003-0.021,0.005c-0.55,0.022-1.11,0.069-1.68,0.143c-0.297,0.039-0.451,0.282-0.469,0.519
		c-1.095,0.447-2.039,1.095-2.72,2.249c-1.239,2.101-0.773,5.147-0.331,7.395c0.973,4.952,4.402,7.915,9.476,6.734
		C79.385,24.594,79.964,19.263,78.55,14.588z M74.206,24.716c-4.309,1.752-7.649-0.984-8.751-5.067
		c-0.538-1.997-0.709-4.046-0.351-6.085c0.445-2.537,2.499-3.192,4.645-3.734c2.706-0.113,5.31,0.431,6.986,2.923
		c0.998,1.484,1.548,4.073,1.637,5.83C78.523,21.571,76.86,23.637,74.206,24.716z"/>
	<path d="M75.604,36.348c-0.223-0.323-0.558-0.664-0.943-0.956c0.121-0.078,0.212-0.205,0.215-0.392
		c0.043-2.621,0.315-5.413-0.143-8.008c-0.112-0.634-1.076-0.365-0.965,0.266c0.436,2.468,0.156,5.161,0.109,7.661
		c-0.348-0.159-0.705-0.261-1.043-0.252c-1.187,0.029-1.842,0.431-2.303,1.193c-0.157,0.032-0.298,0.133-0.347,0.341
		c-0.176,0.749-0.47,1.435-0.948,2.044c-0.086,0.11-0.168,0.279-0.255,0.448c-0.211-0.695-0.31-1.464-0.466-2.135
		c-0.223-0.955-0.462-1.906-0.699-2.857c-0.156-0.625-1.121-0.36-0.965,0.266c0.273,1.094,0.544,2.188,0.8,3.285
		c0.209,0.895,0.325,1.846,0.751,2.667c0.127,0.245,0.456,0.309,0.684,0.18c0.463-0.261,0.622-0.847,0.935-1.245
		c0.319-0.406,0.567-0.841,0.766-1.3c0.084-0.057,0.157-0.134,0.196-0.254c0.327-1.006,1.457-1.752,2.484-1.388
		c1.325,0.47,1.461,1.467,1.492,2.693c0.038,1.564-0.181,3.475-1.925,3.913c-0.625,0.157-0.36,1.122,0.266,0.965
		c1.082-0.272,1.925-0.911,2.294-2.017C76.018,40.196,76.43,37.546,75.604,36.348z"/>
	<path d="M62.354,34.687c0.29-0.315,0.096-0.854-0.354-0.854h-0.333c-0.328,0-0.487,0.259-0.481,0.513
		c-0.579,0.347-1.285,0.43-1.929,0.671c-1.186,0.444-2.371,0.889-3.556,1.333c-0.598,0.224-0.339,1.191,0.266,0.964
		c0.853-0.32,1.705-0.64,2.558-0.959c-0.132,0.277-0.204,0.548-0.216,0.865C58.296,37.57,58.5,37.89,58.5,38.214
		c0.002,0.785,0.051,1.652,0.791,2.088c0.582,0.344,1.228-0.079,1.412-0.653c0.206-0.502,0.146-1.148,0.062-1.644
		c-0.144-0.85-0.803-1.487-1.499-1.927c0.233-0.087,0.468-0.175,0.701-0.263C60.86,35.481,61.67,35.43,62.354,34.687z"/>
	<path d="M49.466,38.018c-1.787-0.381-3.654-0.117-5.466-0.352c-0.638-0.083-0.63,0.918,0,1c0.589,0.076,1.188,0.091,1.788,0.098
		c-0.512,0.197-0.821,0.8-0.853,1.365c-0.033,0.579,0.312,1.014,0.479,1.531c0.168,0.519,0.364,0.976,0.727,1.387
		c0.026,0.029,0.06,0.055,0.09,0.081c0.105,0.265,0.223,0.506,0.516,0.637c0.694,0.311,1.139-0.134,1.169-0.827
		c0.028-0.646-0.1-1.397-0.189-2.035c-0.099-0.703-0.417-1.837-1.186-2.127c0.659,0.004,1.316,0.014,1.962,0.093
		C48.583,38.946,48.69,39,48.833,39h0.5C49.888,39,50.027,38.138,49.466,38.018z M46.758,41.158
		c-0.063-0.011-0.124-0.008-0.184,0.012c-0.029-0.102-0.065-0.199-0.092-0.303c-0.066-0.255-0.267-0.355-0.469-0.35
		c-0.038-0.127-0.066-0.256-0.078-0.389c-0.081-0.935,0.513-0.065,0.545-0.007c0.104,0.191,0.151,0.426,0.205,0.636
		C46.718,40.891,46.74,41.023,46.758,41.158z"/>
	<path d="M52.633,47.518c-0.558-0.188-1.52-0.421-1.199-1.168c0.253-0.591,0.584-1.092,1.087-1.496s-0.209-1.106-0.707-0.707
		c-0.741,0.596-1.521,1.695-1.472,2.679c0.047,0.969,1.269,1.402,2.025,1.657C52.979,48.688,53.24,47.723,52.633,47.518z"/>
	<g>
		<path d="M56.649,61.7c-0.225-0.599-1.191-0.339-0.965,0.266c0.261,0.696,1.188,2.091-0.018,2.034
			c-1.383-0.065-3.188,0.39-4.508,0.771c-2.79,0.805-5.747,2.187-7.969,4.071c-2.312,1.961-4.073,5.103-5.455,7.739
			c-1.23,2.347-2.328,4.683-3.281,7.151c-1.105-2.115-2.759-3.935-3.842-6.069c-1.047-2.063-1.681-5.032-3.477-6.564
			c1.098-1.715,0.591-2.553,0.271-4.657c-0.236-1.55-0.757-2.393-2.256-2.93c-1.138-0.409-2.976-0.059-3.836,0.802
			c-1,1-0.117,2.433,0.414,3.418c1.219,2.263-3.235,3.255-4.358,2.363c-1.064-0.845-1.528-2.399-2.02-3.614
			c-0.457-1.128-1.274-1.209-2.373-1.048c-2.588,0.378-1.761,4.581-0.755,6.747c-1.29-0.311-2.524-0.965-3.888-0.847
			c-0.263,0.022-0.511,0.21-0.5,0.5c0.083,2.181,1.847,3.419,3.573,4.383c-1.703,0.429-4.244,0.892-3.514,2.792
			c0.285,0.741,1.877,1.368,2.521,1.757c0.342,0.206,0.714,0.306,1.092,0.354c-0.745,0.757-1.285,1.699-0.433,2.552
			c1.43,1.431,4.847,0.525,6.113-0.65c0.474-0.439-0.235-1.145-0.707-0.707c-0.801,0.743-2.95,1.175-3.961,0.929
			c-1.912-0.466,0.555-2.174,0.734-2.311c0.423-0.322,0.201-1.085-0.385-0.914c-0.956,0.273-1.813,0.109-2.571-0.492
			c-0.335-0.203-2.311-1.127-0.707-1.671c1.114-0.378,2.257-0.604,3.331-1.09c0.343-0.155,0.309-0.698,0-0.863
			c-1.457-0.78-3.592-1.751-3.998-3.571c1.456,0.093,2.78,0.92,4.246,1.003c0.473,0.026,0.612-0.547,0.354-0.854
			c-0.952-1.13-1.045-2.124-1.187-3.479l0.01-0.519c-0.151-1.299,0.601-1.702,2.254-1.208c0.433,1.068,0.845,2.024,1.538,2.954
			c1.143,1.533,3.017,1.829,4.616,0.871c1.214-0.728,2.584-1.751,2.105-3.302c-0.505-1.636-1.926-3.073,0.977-3.405
			c3.048-0.35,3.403,4.883,2.234,6.523c-0.198,0.277-0.048,0.542,0.19,0.659c0.035,0.069,0.082,0.136,0.156,0.19
			c0.835,0.621,1.209,2.313,1.8,3.237c0.61,0.956,1.057,2.137,1.535,3.166c1.152,2.485,3.267,4.411,4.269,6.965
			c0.182,0.464,0.79,0.485,0.964,0c0.35-0.971,0.728-1.979,1.133-2.997c0.035,0.047,0.075,0.092,0.133,0.129
			c2.1,1.35,3.688,3.21,5.318,5.07c1.239,1.414,2.531,2.677,3.609,4.171c-1.282,1.182-2.577,2.354-4.018,3.388
			c-1.462,1.05-2.995,2.01-4.493,3.008c-1.76,1.174-3.402,2.565-5.582,2.794c-3.961,0.415-6.462-4.36-8.213-7.094
			c-2.01-3.138-3.273-6.418-4.554-9.901c-0.22-0.6-1.187-0.341-0.964,0.266c1.422,3.869,2.868,7.352,5.1,10.836
			c1.858,2.902,3.597,5.548,7.017,6.686c3.597,1.196,7.255-2.425,9.952-4.223c1.789-1.192,3.529-2.414,5.196-3.773
			c0.411-0.335,0.803-0.689,1.189-1.05c0.03,0.05,0.067,0.093,0.097,0.144c0.325,0.557,1.19,0.054,0.863-0.504
			c-0.07-0.12-0.146-0.231-0.219-0.349c1.02-0.991,2.018-2.003,3.141-2.879c0.276-0.216,0.13-0.617-0.102-0.785
			c-0.051-0.052-0.103-0.103-0.154-0.153c-0.342-0.545-1.207-0.044-0.863,0.504c0.012,0.02,0.024,0.027,0.036,0.045
			c-0.928,0.749-1.805,1.548-2.677,2.352c-1.094-1.5-2.374-2.743-3.654-4.188c-1.702-1.92-3.345-3.829-5.521-5.227
			c-0.11-0.071-0.216-0.082-0.315-0.067c2.2-5.339,5.292-10.88,10.232-13.548c3.314-1.79,6.287-2.408,9.973-2.811
			C58.082,64.818,56.855,62.252,56.649,61.7z"/>
		<path d="M52.336,105.553c-0.165-2.323-0.3-4.648-0.521-6.97c-0.526-5.552-0.537-11.198-1.333-16.716
			c-0.092-0.637-1.056-0.365-0.965,0.266c0.676,4.678,0.426,9.436,1.068,14.114c0.343,2.496,0.539,5.068,0.581,7.586
			c0.008,0.474,0.573,3.011,0.248,3.235c-0.527,0.364-0.027,1.231,0.504,0.863C52.632,107.439,52.389,106.288,52.336,105.553z"/>
		<path d="M21.966,74.851c-0.433-0.077-0.853-0.008-1.247,0.157c-0.253-0.043-0.503-0.121-0.687-0.201
			c-0.576-0.251-0.904-0.673-1.051-1.272c-0.153-0.626-1.118-0.36-0.964,0.266c0.227,0.925,0.8,1.527,1.644,1.918
			c-0.666,0.621-1.188,1.456-1.477,2.149c-0.249,0.595,0.72,0.852,0.964,0.266c0.243-0.582,0.933-1.641,1.694-2.102
			c0.454,0.034,0.911-0.027,1.243-0.267C22.397,75.54,22.437,74.935,21.966,74.851z"/>
	</g>
	<path d="M27.099,34.414c-1.758-2.323-5.471-5.668-8.518-5.92c-3.818-0.315-6.575,2.337-8.942,5.01
		c-1.403,1.584-2.771,3.186-4.2,4.747C4.105,39.708,4.114,41.11,4.167,43c0.018,0.644,1.018,0.645,1,0
		c-0.1-3.593,2.53-5.661,4.67-8.197c2.362-2.8,5.339-6.057,9.377-5.156c2.813,0.628,6.121,3.821,7.642,6.158
		c0.801,1.231,1.296,2.896,0.666,4.305c-1.226,2.739-4.591,0.224-6.355,0.224c-1.879,0-3.725,1.718-4.879,3.04
		c-1.539,1.762-1.199,3.841-0.504,5.869c1.581,4.617-3.754,4.171-6.028,2.213c-2.306-1.985-3.929-5.298-5.49-7.874
		c-0.333-0.55-1.198-0.048-0.863,0.505c1.891,3.121,3.798,6.861,6.846,9.013c1.579,1.114,4.305,1.25,5.849,0.074
		c0.709-0.539,1.013-1.602,1.013-2.449c0-0.867-0.352-1.718-0.627-2.523c-0.819-2.392,0.27-4.247,2.104-5.602
		c2.453-1.812,3.918-0.634,6.519-0.286c1,0.134,2.37-0.442,2.965-1.262C29.591,38.953,28.509,36.278,27.099,34.414z"/>
	<path d="M23.217,56.621c-0.485,0.238-0.952,0.534-1.391,0.874c-0.408-0.672-0.598-1.478-0.659-2.328
		c-0.137-1.898,1.77-5.482,4.053-6.114c0.557,0.08,1.111,0.077,1.45-0.121c0.344-0.201,0.326-0.842-0.12-0.914
		c-0.4-0.064-0.784-0.049-1.152,0.025c-0.37-0.078-0.763-0.196-0.957-0.236c-1.735-0.356-2.721-1.675-3.292-3.273
		c-0.215-0.603-1.181-0.343-0.964,0.266c0.689,1.933,1.605,3.051,3.516,3.849c0.046,0.019,0.105,0.04,0.159,0.06
		c-0.486,0.317-0.942,0.709-1.369,1.116c-1.787,1.701-2.434,3.807-2.261,6.208c0.062,0.852,0.344,1.598,0.767,2.199
		c-0.925,0.911-1.681,2.012-2.158,3.161c-0.719,1.735-1.958,3.958-0.687,5.693c0.376,0.515,1.245,0.017,0.863-0.504
		c-1.238-1.692,0.722-4.809,1.552-6.245c0.294-0.51,0.678-0.957,1.108-1.358c1.294,1.093,3.202,1.228,4.678-0.207
		c0.645-0.626,0.73-1.76,0.073-2.363C25.516,55.568,24.144,56.164,23.217,56.621z M23.169,58.735
		c-0.25-0.125-0.461-0.277-0.656-0.44c0.216-0.156,0.435-0.307,0.657-0.446c0.248-0.155,2.606-1.485,2.695-0.505
		C25.986,58.672,24.06,59.181,23.169,58.735z"/>
	<path d="M11.248,54.818c-1.153,0.557-2.363,0.027-3.476-0.335c-1.473-0.481-2.402-1.741-2.957-3.116
		c-0.238-0.59-1.205-0.333-0.964,0.266c1.135,2.818,4.738,5.576,7.901,4.049C12.333,55.401,11.826,54.539,11.248,54.818z"/>
	<path d="M8.818,56.331c-0.198,0.346-1.077,0.345-1.401,0.37c-0.499,0.04-1.003,0.007-1.5-0.034c-0.643-0.053-0.638,0.948,0,1
		c1.071,0.088,3.128,0.28,3.765-0.832C10.002,56.274,9.138,55.771,8.818,56.331z"/>
	<path d="M23.682,28.414c-0.805-1.065-1.399-2.007-2.596-2.679c-1.104-0.62-2.618-0.566-3.836-0.568c-0.645-0.001-0.645,0.999,0,1
		c1.045,0.002,2.052,0.033,3.062,0.333c1.22,0.363,1.8,1.483,2.507,2.419C23.202,29.426,24.071,28.929,23.682,28.414z"/>
	<path d="M21.383,23.435c-0.599-0.241-0.856,0.727-0.266,0.964c0.482,0.194,1.547,0.28,1.651,0.901
		c0.105,0.635,1.069,0.365,0.964-0.266C23.548,23.925,22.234,23.777,21.383,23.435z"/>
	<path d="M10.025,43.78c-0.24-0.304-0.51-0.586-0.785-0.864c0.336-0.384,0.67-0.771,0.978-1.17c0.225-0.292-0.145-0.697-0.476-0.596
		c-0.117,0.036-0.231,0.088-0.345,0.142c-0.061,0-0.122,0.008-0.177,0.035c-0.23,0.107-0.427,0.265-0.613,0.438
		c-0.101,0.073-0.2,0.143-0.296,0.217c-0.226-0.233-0.446-0.473-0.645-0.727c-0.038-0.044-0.074-0.092-0.112-0.135
		c-0.309-0.349-0.946,0.121-0.662,0.492c0.021,0.028,0.047,0.053,0.069,0.08c-0.001,0-0.002,0.001-0.003,0.002
		c0.12,0.136,0.233,0.277,0.349,0.416c-0.1,0.116-0.145,0.278-0.063,0.45c0.041,0.086,0.096,0.17,0.15,0.253
		c-0.333,0.375-0.637,0.79-0.923,1.165c-0.27,0.354,0.235,0.725,0.577,0.556c0.374-0.185,0.663-0.477,0.929-0.8
		c0.1,0.101,0.24,0.148,0.375,0.109c0.434,0.383,0.903,1.016,1.431,1.232c0.245,0.1,0.542,0.035,0.619-0.243
		C10.516,44.424,10.309,44.075,10.025,43.78z"/>
	<path d="M19.58,30.172c-0.629-0.375-1.275-0.198-1.744,0.289c-0.481,0.501-0.595,1.311-0.19,1.87
		c0.341,0.472,1.16,0.954,1.725,0.478c0.175-0.147,0.277-0.335,0.328-0.537c0.174-0.114,0.33-0.255,0.441-0.457
		C20.444,31.26,20.132,30.5,19.58,30.172z"/>
	<path d="M19.621,33.43c-0.932,0.2-1.055,1.62-0.377,2.103c0.157,0.112,0.324,0.174,0.491,0.204
		c0.059,0.038,0.109,0.082,0.183,0.108c0.515,0.186,1.13-0.048,1.276-0.551C21.45,34.41,20.796,33.177,19.621,33.43z"/>
	<path d="M13.84,39.409c-0.379,0.22-0.664,0.539-0.932,0.881c-0.098,0.125-0.191,0.364-0.318,0.452
		c-0.107,0.074-0.152,0.192-0.2,0.301c-0.204,0.044-0.381,0.194-0.381,0.464v0.167c0,0.346,0.438,0.667,0.752,0.432
		c0.213-0.16,0.339-0.359,0.475-0.551c0.014-0.011,0.029-0.014,0.042-0.027c0.446-0.43,1.128-0.927,1.295-1.554
		C14.688,39.549,14.222,39.188,13.84,39.409z"/>
	<path d="M17.716,36.768c-0.925-0.205-1.486,0.819-1.986,1.378c-0.429,0.479,0.276,1.188,0.707,0.707
		c0.031-0.035,0.055-0.075,0.084-0.112c0.049-0.013,0.098-0.026,0.148-0.06c0.494-0.329,1.227-0.678,1.396-1.299
		C18.135,37.13,17.983,36.827,17.716,36.768z"/>
	<path d="M105.979,66.521c-4.747-5.766-11.856-10.142-18.895-12.501c-3.227-1.082-6.698-1.443-9.957-0.34
		c-3.103,1.051-5.137,4.304-6.834,6.914c-0.287-0.819-0.571-1.639-0.811-2.478c-0.178-0.619-1.143-0.355-0.965,0.266
		c0.364,1.271,0.833,2.497,1.25,3.75c0.143,0.426,0.651,0.42,0.879,0.171c-0.614,2.846-2.7,4.738-5.604,5.241
		c-3.577,0.62-6.811-0.987-9.439-3.273c-0.484-0.421-1.194,0.283-0.707,0.707c2.666,2.319,6.063,4.159,9.736,3.629
		c3.77-0.545,6.546-2.635,7.1-6.6c0.088-0.63-0.876-0.902-0.965-0.266c-0.007,0.052-0.024,0.098-0.032,0.149
		c-0.003-0.009,0-0.016-0.003-0.024c-0.044-0.132-0.091-0.263-0.136-0.394c0.168,0.015,0.343-0.041,0.46-0.222
		c1.849-2.835,3.76-5.734,7.114-6.87c3.046-1.031,6.539-0.104,9.467,0.877c2.976,0.998,5.932,2.481,8.694,4.262
		c-0.028-0.006-0.051-0.02-0.082-0.021c-1.725-0.074-2.655,1.006-3.557,2.311c-1.271,1.836-1.646,3.617-1.818,5.814
		c-0.051,0.644,0.95,0.639,1,0c0.107-1.368,0.233-2.693,0.816-3.953c0.651-1.409,1.843-3.246,3.559-3.172
		c0.454,0.02,0.58-0.468,0.395-0.769c2.503,1.643,4.844,3.521,6.872,5.517c2.654,2.613,5.078,6.428,2.936,10.088
		c-1.502,2.567-4.666,4.104-7.206,5.406C92.908,83.991,86.768,84.805,79.75,85c-0.644,0.018-0.646,1.018,0,1
		c3.182-0.089,6.348-0.176,9.48-0.677c1.749,3.204,2.737,6.776,4.158,10.132c1.392,3.287,2.992,6.326,4.771,9.394
		c-0.168,0.507,0.567,0.91,0.878,0.425c0.197-0.146,0.272-0.43,0.144-0.65c-1.987-3.407-3.736-6.779-5.246-10.443
		c-1.24-3.01-2.157-6.152-3.675-9.037c0.304-0.059,0.607-0.113,0.91-0.181c3.785-0.84,7.452-2.65,10.801-4.559
		c2.313-1.316,5.222-3.249,6.05-5.955C108.866,71.687,107.771,68.698,105.979,66.521z"/>
	<path d="M83.057,69.498c-2.009-3.243-7.631-6.767-10.893-3.208c-0.903,0.984-1.044,3.037-0.603,4.339
		c-0.061-0.007-0.124-0.006-0.194,0.014c-1.933,0.54-2.735,1.897-2.867,3.857c-0.104,1.537,0.746,1.728,1.721,1.658
		c-0.597,0.461-1.116,0.927-0.828,1.975c0.272,0.988,1.017,1.502,1.884,1.688c-0.593,0.744-0.889,1.756-0.634,2.687
		c0.514,1.879,1.364,2.113,2.874,1.761c0.105,0.919,0.608,1.622,1.522,2.08c1.329,0.664,2.252-0.856,3.453-0.616
		c0.63,0.126,0.897-0.838,0.266-0.965c-1.164-0.232-4.451,1.458-4.258-1.143c0.024-0.325-0.337-0.567-0.633-0.482
		c-1.772,0.512-3.33-2.42-1.109-3.285c0.481-0.188,0.47-1.059-0.133-0.982c-1.294,0.163-2.742-1.635-1.326-2.396
		c0.406-0.218,0.509-0.358,0.758-0.727c0.205-0.303-0.063-0.779-0.432-0.752c-0.641,0.048-0.608,0.024-1.197,0.268
		c-0.953-0.346-1.213-0.962-0.779-1.848c0.309-1.065,0.971-1.67,1.984-1.813c0.148-0.042,0.243-0.13,0.298-0.235
		c0.95,1.282,2.454-0.056,3.571-0.815c0.53-0.36,0.031-1.227-0.504-0.863c-0.576,0.392-2.285,2.162-2.57,0.012
		c-0.258-1.945,0.609-3.669,2.793-3.875c2.752-0.26,5.613,1.979,6.973,4.172C82.532,70.549,83.397,70.048,83.057,69.498z"/>
	<path d="M92.271,67.896c-0.366,0.407-0.652,0.097-1.029,0.246c-0.776,0.309-1.561,0.464-2.379,0.62
		c-1.65,0.314-3.313,0.438-4.988,0.362c-0.645-0.029-0.643,0.972,0,1c1.773,0.079,3.508-0.1,5.254-0.397
		c1.076-0.185,3.07-0.26,3.85-1.124C93.409,68.126,92.704,67.416,92.271,67.896z"/>
	<path d="M34.432,18.248c-0.895-1.335-2.048-2.304-3.334-3.249c-0.426-0.313-1.688-1.089-2.769-1.973
		c0.517-1.566,0.84-3.193,0.96-4.827c0.902-1.212,1.131-2.775-0.205-4.093c-2.299-2.27-5.638-2.111-8.537-1.224
		c-1.123,0.344-3.043,1.229-4.185,2.425c-1.478-0.674-3.239-0.174-4.687,0.563c-4.257,2.165-4.55,7.558-1.864,11.003
		c3.143,4.031,7.069,1.134,9.291-2.093c-0.042,0.576-0.068,1.145-0.063,1.688c0.016,1.866,0.577,3.942,2.43,4.64
		c1.871,0.705,3.833-2.164,4.616-3.378c0.774-1.2,1.416-2.492,1.927-3.835c1.691,1.162,3.453,2.353,4.771,3.849
		c-1.508-0.518-3.07-1.713-4.279-2.424c-0.557-0.328-1.06,0.537-0.505,0.863c1.699,1,3.948,2.743,6.002,2.818
		C34.366,19.013,34.641,18.56,34.432,18.248z M26.083,6.216c1.677-0.58,2.423-0.201,2.237,1.136
		c0.013,0.205,0.006,0.411-0.005,0.617c-0.833,0.958-2.27,0.952-3.136,1.818c-0.893,0.893,0.188,2.185,0.914,2.738
		c0.178,0.136,0.366,0.269,0.55,0.402C23.025,13.299,24.818,8.282,26.083,6.216z M27.345,9.779c0.286-0.134,0.562-0.299,0.823-0.486
		c-0.139,1.014-0.367,2.008-0.672,2.98C26.556,11.319,26.118,10.354,27.345,9.779z M24.949,3.288
		c0.863,0.039,2.06,0.421,2.938,1.067c-0.347-0.13-0.764-0.142-1.269,0.025c-0.697,0.23-1.257,0.818-1.705,1.564
		c-0.11-0.117-0.239-0.226-0.403-0.322c-1.18-0.691-2.662,1.386-3.184,2.106c-0.079,0.109-0.144,0.232-0.218,0.346
		c-0.049-0.477-0.139-0.946-0.294-1.397c-0.492-1.432-1.686-1.723-2.84-1.384c0.599-0.413,1.231-0.739,1.6-0.936
		C21.209,3.486,23.125,3.206,24.949,3.288z M16.081,8.98c0.043-0.255,0.107-0.481,0.186-0.686c0.519-0.146,1.003-0.617,1.199-1.157
		c0.646-0.185,1.497-0.077,2.572,0.353c0.267,0.778,0.056,2.16-0.064,2.896c-0.003,0.021-0.01,0.042-0.013,0.063
		c-0.181,0.521-0.337,1.053-0.461,1.597c-0.111,0.284-0.235,0.565-0.372,0.842c-1.094-0.625-2.188-1.251-3.281-1.876
		C15.855,10.328,15.933,9.65,16.081,8.98z M20.912,10.996c0.297-0.98,0.756-1.887,1.278-2.763c-0.588,0.989,2.195-3.142,1.814-0.903
		c-0.209,1.231-1.728,2.899-2.482,3.754c-0.264,0.299-0.563,0.562-0.872,0.812C20.735,11.594,20.822,11.292,20.912,10.996z
		 M17.455,15.516c-3.292,4.228-7.966,1.433-8.459-3.146c-0.18-1.665,0.577-3.19,1.628-4.412c0.714-0.83,1.715-1.363,2.721-1.745
		c0.407-0.077,0.814-0.154,1.221-0.231c0.503-0.106,0.86,0.014,1.083,0.345c-0.208,0.459-0.268,0.948-0.131,1.458
		c-1.124,2.979-0.636,7.693,2.722,6.64C17.987,14.805,17.724,15.171,17.455,15.516z M24.846,17.807
		c-0.538,0.834-3.139,4.103-4.364,0.935c-0.386-0.998-0.441-2.061-0.451-3.117c-0.007-0.83,0.116-1.658,0.298-2.474
		c1.028-0.781,2.229-1.835,3.194-2.926c-0.039,0.255-0.069,0.492-0.09,0.699c-0.267,2.704,1.444,3.313,3.473,2.99
		c-0.116,0.288-0.226,0.578-0.353,0.862C26.084,15.831,25.47,16.839,24.846,17.807z"/>
	<path d="M97.229,29.021c-0.164-0.196-0.371-0.199-0.538-0.106c-0.044-0.04-0.082-0.083-0.13-0.121
		c-0.146-0.119-0.3-0.186-0.455-0.229c0.054-0.935-0.294-1.754-1.272-2.162c-0.495-0.206-0.947-0.281-1.364-0.26
		c0.085-0.119,0.164-0.232,0.23-0.333c0.688-1.045,1.63-3.613,0.289-4.585c-1.325-0.961-2.925,0.096-3.842,1.171
		c-0.069,0.081-0.134,0.174-0.2,0.261c-0.134-0.277-0.288-0.534-0.468-0.761c-0.232-0.295-0.761-0.121-0.836,0.221
		c-0.21,0.954-0.223,1.964-0.011,2.917c-0.388,1.008-0.636,2.107-0.681,3.175c-0.747-1.24-1.785-2.143-3.146-1.769
		c-1.982,0.545-1.711,3.953-0.658,5.164c1.128,1.297,2.182,1.653,3.099,1.402c-1.531,1.439-4.262,3.741-4.599,4.016
		c-0.501,0.407,0.212,1.11,0.707,0.707c1.718-1.397,4.354-3.039,5.647-5.009c0.162-0.063,0.299-0.204,0.345-0.385
		c0.124,0.119,0.264,0.226,0.406,0.332c-0.028,0.649-0.002,1.241,0.082,1.701c0.264,1.434,0.82,2.889,2.396,3.175
		c1.567,0.284,2.767-1.112,3.579-2.431c0.194,0.214,0.402,0.406,0.637,0.548c1.64,0.989,2.919,0.006,3.325-1.728
		C100.197,32.119,98.257,30.25,97.229,29.021z M95.803,33.076c-0.036-0.116-0.075-0.218-0.107-0.357
		c-0.071-0.242-0.143-0.484-0.213-0.727c-0.429-0.728-0.098-1.137,0.993-1.23C96.568,31.465,96.195,32.321,95.803,33.076z
		 M91.207,29.747c0.161-0.344,0.321-0.688,0.482-1.032c0.81-1.545,1.688-1.213,2.636,0.946c-0.072,0.184-0.124,0.374-0.124,0.566
		c0,0.169,0.013,0.356,0.027,0.545c-0.79,1.147-2.209,1.863-3.468,1.312C90.827,31.291,90.979,30.505,91.207,29.747z M91.117,22.794
		c0.789-0.924,3.131-2.036,2.296,1.284l-0.577,1.228c-0.415,1.098-1.17,1.417-2.261,0.966c0.028-0.867-0.045-1.714-0.232-2.478
		C90.58,23.444,90.846,23.112,91.117,22.794z M89.686,27.242c-0.064,0.965-0.266,1.912-0.605,2.71
		c-0.284-1.061-0.164-2.29,0.125-3.417C89.344,26.783,89.505,27.018,89.686,27.242z M86.5,32c-1.626,0-2.317-2.62-2.041-3.802
		c0.563-2.408,2.994,1.211,3.142,1.474c0.276,0.491,0.442,1.038,0.57,1.592c-0.016,0.029-0.028,0.06-0.036,0.094
		C87.692,31.757,87.154,32,86.5,32z M89.518,30.986c-0.027-0.041-0.041-0.088-0.065-0.13c0.442-0.859,0.77-1.89,0.955-2.965
		c0.178,0.085,0.357,0.124,0.538,0.125c-0.554,0.987-0.9,2.231-1.073,3.417C89.75,31.3,89.631,31.154,89.518,30.986z M91.361,35.849
		c-0.396-0.546-0.523-1.422-0.596-2.068c-0.021-0.186-0.02-0.372-0.027-0.557c0.026,0.01,0.048,0.025,0.074,0.036
		c1.197,0.457,2.553-0.192,3.596-1.257c0.158,0.762,0.415,1.541,0.782,2.216C94.612,35.256,92.822,37.866,91.361,35.849z
		 M96.442,33.981c0.467-0.902,0.974-2.046,1.011-3.107c0.13,0.163,0.267,0.321,0.395,0.485c0.141,0.214,0.282,0.429,0.424,0.644
		C97.516,33.442,96.908,34.09,96.442,33.981z"/>
	<path d="M38.604,60.146c-0.482-0.425-1.192,0.28-0.707,0.707c0.046,0.037,0.082,0.085,0.127,0.123
		c-0.068,0.068-0.123,0.151-0.153,0.236c-0.405,1.109,0.395,2.434,1.48,2.797c0.013,0.163,0.023,0.326,0.025,0.49
		c0.01,0.877-0.367,4.469-2.452,2.729c-0.278-0.232-1.055-1.729-1.243-2.796c0.333-0.412,0.582-0.896,0.677-1.426
		c0.039-0.218-0.051-0.411-0.204-0.525c0.122-0.351,0.167-0.771,0.13-1.176c-0.072-0.788-0.32-1.406-0.665-1.873
		c0.491,0.38,1.011,0.667,1.499,0.533c0.29-0.08,0.441-0.343,0.564-0.59c0.468-0.936,1.028-1.767,1.625-2.625
		c0.369-0.53-0.498-1.029-0.863-0.504c-0.189,0.272-1.706,2.661-1.753,2.633c-0.904-0.543-1.605-1.566-2.682-1.863
		c-1.034-0.284-1.352,0.813-1.371,1.661c-0.791,0.413-1.423,1.307-1.512,2.696c-0.08,1.239-0.097,3.436,1.315,4.022
		c0.818,0.34,1.655,0.208,2.352-0.195c0.458,2.1,2.195,4.412,4.048,3.327c0.964-0.564,1.562-2.635,1.532-4.485
		C42.053,63.515,38.863,60.375,38.604,60.146z M33.91,59.767c0.672,0.051,1.297,0.55,1.374,1.54
		C35.404,62.878,34.408,61.213,33.91,59.767z M32.294,63.68c-0.137-0.446-0.205-0.904-0.203-1.375
		c-0.021-0.42,0.022-0.835,0.13-1.244c0.111-0.43,0.34-0.75,0.623-0.969c0.271,1.112,0.768,2.409,1.648,2.933
		c0.133,0.079,0.251,0.121,0.369,0.161c-0.111,0.26-0.17,0.561-0.181,0.895C34.11,64.604,33.318,64.479,32.294,63.68z"/>
	<path d="M94.555,2.502c-0.732-0.256-1.49-0.114-2.255,0.148c-0.624-0.96-1.312-0.238-1.807,0.719
		c-0.463,0.182-0.923,0.334-1.376,0.399c-0.422,0.06-1.131-1.279-1.5-1.594c-0.404-0.345-1.289-0.378-1.775-0.244
		c-1.514,0.416-2.265,1.874-2.758,3.232c-0.252,0.694-1.173,2.757-0.164,3.348c1.678,0.983,2.783-2.333,1.08-2.916
		c0.016-0.054,0.029-0.108,0.049-0.167c0.32-0.973,1.906-4.221,3.645-1.675c0.123,0.18,0.193,0.402,0.29,0.593
		c-0.097,0.062-0.179,0.147-0.216,0.272c-0.291,0.982-0.426,3.276-0.026,5.199c-1.729,2.05-3.924,3.921-5.845,5.455
		c-0.504,0.402,0.209,1.105,0.707,0.707c1.643-1.312,3.139-2.766,4.625-4.25c0.259-0.258,0.533-0.545,0.81-0.845
		c0.421,1.152,1.115,1.991,2.212,1.991c0.836,0,1.387-1.094,1.75-2.051c0.533,0.264,1.158,0.267,1.873-0.152
		C95.901,9.484,97.588,3.561,94.555,2.502z M92.083,6.25c0,0.206-0.216,1.425-0.566,2.646c-0.518-0.702-0.788-1.485-0.782-2.361
		c-0.036-0.453,0.036-0.965,0.109-1.413c0.041-0.251,0.098-0.501,0.167-0.748c0.208-0.071,0.415-0.144,0.622-0.222
		c0.076-0.029,0.147-0.061,0.222-0.09C92.056,4.78,92.134,5.51,92.083,6.25z M89.966,4.661c-0.072,0.232-0.126,0.436-0.148,0.576
		c-0.072,0.446-0.044,1.086,0.077,1.776c-0.01,0.003-0.018,0.001-0.027,0.005c-0.422,0.151-0.707,0.33-0.959,0.538
		c0.173-0.976,0.365-2.122,0.004-2.8C89.27,4.76,89.621,4.731,89.966,4.661z M89.432,11.248c-0.252-0.327-0.447-0.77-0.598-1.271
		c0.503-0.599,0.96-1.217,1.338-1.821c0.225,0.71,0.545,1.392,0.954,1.914C90.66,11.261,90.064,12.071,89.432,11.248z M94.66,7.722
		c-0.186,0.425-0.391,0.84-0.613,1.246C93.564,9.004,93.082,9.04,92.6,9.076c0.527-1.748,0.688-3.637,0.146-5.376
		c0.067-0.028,0.135-0.054,0.202-0.083C95.16,4.514,95.73,5.882,94.66,7.722z"/>
	<path d="M79.077,4.017c-0.261-0.886-1.354-0.615-1.954-0.324c-0.225,0.108-0.284,0.303-0.242,0.486
		c-0.032,0.141-0.004,0.294,0.141,0.424c0.378,0.34,0.832,0.563,1.35,0.55c0.268-0.007,0.555-0.149,0.677-0.401
		C79.188,4.459,79.167,4.32,79.077,4.017z"/>
	<path d="M96.741,14.717c0.05-0.516-0.418-0.91-0.895-0.958c-0.51-0.052-1.026,0.189-1.446,0.457
		c-0.865,0.552-1.228,1.812-0.728,2.729c0.348,0.638,1.111,0.671,1.699,0.405c0.638-0.289,0.797-0.872,0.724-1.467
		C96.451,15.599,96.699,15.146,96.741,14.717z M94.867,16.485c-0.261,0.162-0.388-0.088-0.411-0.289
		c-0.021-0.191,0.012-0.43,0.083-0.638c0.067,0.315,0.299,0.497,0.579,0.563C95.107,16.254,95.044,16.375,94.867,16.485z"/>
	<path d="M36.24,2.375c-0.841-0.826-2.441-0.552-3.368-0.056c-0.931,0.498-1.155,1.422-0.256,1.914
		c-0.11,0.304-0.158,0.641-0.126,0.944c0.021,0.192,0.069,0.364,0.129,0.525c0.003,0.093,0.035,0.181,0.109,0.254
		c0.366,0.654,1.094,0.959,1.934,0.837C36.415,6.537,37.528,3.639,36.24,2.375z M33.574,4.436c0.191-0.379,0.638,0.94,0.645,1.064
		c0.02,0.35-0.054,0.141-0.32-0.013c-0.126-0.073-0.251-0.144-0.377-0.213C33.448,4.981,33.47,4.643,33.574,4.436z M35.224,5.283
		c-0.074-0.765-0.528-1.657-1.135-1.875c-0.338-0.121-0.62-0.08-0.855,0.046c-0.033-0.021-0.06-0.046-0.1-0.062
		c-0.217-0.081,0.152-0.168,0.245-0.211c0.333-0.156,0.635-0.261,1.003-0.302c0.467-0.052,1.06-0.016,1.329,0.418
		C36.068,3.877,35.634,4.764,35.224,5.283z"/>
	<path d="M6.81,14.691c-0.748-1.106-1.59,0.183-1.792,0.926c-0.169,0.623,0.795,0.887,0.964,0.266
		c0.043-0.157,0.087-0.31,0.153-0.459c0,0,0,0,0-0.001c-0.005,0.058-0.003,0.132,0.03,0.238c0.172,0.558,0.052,1.213-0.088,1.762
		c-0.109,0.426-0.303,1.151-0.875,1.04c-0.17-0.033-0.165-0.053-0.273-0.123c-0.071-0.053-0.138-0.111-0.2-0.174
		c-0.022-0.038-0.042-0.059-0.061-0.077c0.176-0.411-0.236-0.965-0.671-0.645c-0.811,0.596-0.111,1.409,0.514,1.814
		c0.918,0.596,1.883-0.007,2.287-0.872C7.299,17.313,7.503,15.719,6.81,14.691z"/>
	<path d="M64.127,51.943c-1.361-0.958-2.614-2.828-4.351-0.963c-0.2,0.214-0.516,0.459-0.634,0.762
		c-0.432,1.108-0.833,0.298-1.414-0.221c-0.657-0.587-1.202-0.64-1.986-0.379c-0.796,0.266-1.269,0.969-1.676,1.643
		c-0.136,0.225-0.432,0.626-0.213,0.861c-0.313-0.338-0.797-0.626-1.171-0.879c-2.041-1.382-3.091,1.388-3.739,2.855
		c-0.258,0.584,0.604,1.093,0.863,0.504c0.479-1.083,1.207-3.284,2.816-2.195c0.604,0.409,0.679,0.745,1.377,0.818
		c0.232,0.024,0.409-0.174,0.482-0.367c0.248-1.435,1.24-2.022,2.977-1.764c0.271,0.243,0.478,0.605,0.805,0.797
		c0.234,0.138,0.599,0.306,0.863,0.141c0.365-0.227,0.532-0.404,0.699-0.83c1.018-2.592,2.686-0.701,3.797,0.08
		C64.151,53.179,64.65,52.312,64.127,51.943z"/>
</g>
</svg>
