<?xml version="1.0" encoding="utf-8"?>
<!-- Generator: Adobe Illustrator 16.0.0, SVG Export Plug-In . SVG Version: 6.00 Build 0)  -->
<!DOCTYPE svg PUBLIC "-//W3C//DTD SVG 1.1//EN" "http://www.w3.org/Graphics/SVG/1.1/DTD/svg11.dtd">
<svg version="1.1" xmlns="http://www.w3.org/2000/svg" xmlns:xlink="http://www.w3.org/1999/xlink" x="0px" y="0px" width="100px"
	 height="100px" viewBox="0 0 100 100" enable-background="new 0 0 100 100" xml:space="preserve">
<g id="Layer_1">
	<g>
		<path d="M47.552,38.876c-0.912-2.961-1.726-5.947-2.475-8.948c-0.376-0.061-0.752-0.183-1.126-0.345
			c0.853,3.4,1.79,6.778,2.828,10.125C47.011,39.405,47.27,39.125,47.552,38.876z"/>
		<path d="M46.922,58.558c-0.07-0.256-0.115-0.516-0.142-0.776c-2.197,0.526-4.373,1.161-6.513,1.825
			c-4.809,1.491-9.524,3.389-14.337,4.913c-0.022,0.404-0.072,0.811-0.126,1.217c2.941-0.977,5.82-2.149,8.552-3.1
			c3.511-1.221,7.036-2.392,10.627-3.359c0.669-0.18,1.344-0.335,2.019-0.49C46.976,58.709,46.944,58.639,46.922,58.558z"/>
		<path d="M3.501,20.095c3.41-1.216,6.955-2.094,10.438-3.07c5.27-1.476,10.407-3.23,15.502-5.16
			c0.091,0.119,0.188,0.234,0.27,0.358c0.353,0.536,1.219,0.036,0.863-0.505c-0.053-0.08-0.115-0.151-0.17-0.229
			c1.304-0.5,2.608-1.002,3.909-1.522c1.781-0.712,3.866-1.609,5.063,0.441c0.275,0.472,0.482,1,0.655,1.55
			c0.319-0.083,0.645-0.138,0.973-0.166c-0.342-1.066-0.798-2.078-1.49-2.924c-1.65-2.017-5.452,0.122-7.164,0.821
			c-0.854,0.349-1.711,0.686-2.57,1.016c-1.423-1.607-3.329-2.778-4.893-4.279c-1.336-1.282-3.576-3.297-5.645-4.14
			c-0.043-0.038-0.089-0.071-0.136-0.102c-0.738-0.559-1.879-0.455-2.622,0.125c-0.613,0.478-1.16,1.243-1.066,1.945
			C15.019,5.284,14.746,6.393,14.481,7c-1.406,3.219-2.984,6.389-4.021,9.753c-0.024,0.077-0.029,0.148-0.021,0.213
			c-0.146,0.042-0.292,0.083-0.438,0.125c-2.001,0.565-4.007,1.126-5.984,1.771c-1.103,0.36-3.031,0.813-3.676,1.914
			c-0.618,1.055-0.288,2.147,0.118,3.205c0.592,1.544,1.114,3.099,1.619,4.666c-0.075,0.104-0.111,0.24-0.073,0.4
			c1.852,7.758,3.656,15.529,5.86,23.197c0.678,2.357,1.437,4.681,2.22,6.998c0.212-0.354,0.464-0.685,0.733-1.003
			c-0.791-2.38-1.558-4.767-2.253-7.183c-1.958-6.811-3.563-13.719-5.201-20.612c0.155-0.104,0.249-0.286,0.176-0.52
			c-0.416-1.339-0.828-2.679-1.266-4.01c-0.182-0.553-0.363-1.183-0.613-1.709C0.748,22.276,1.553,20.79,3.501,20.095z
			 M16.304,5.287c0.225,0.076,0.476,0.091,0.734,0.068c0.383,0.386,0.895,0.566,1.466,0.47c0.936-0.157,1.33-0.926,1.359-1.743
			c1.748,0.995,3.338,2.111,4.872,3.583c1.222,1.173,2.818,2.179,4.035,3.421c-5.655,2.128-11.4,3.901-17.218,5.563
			C12.166,14.939,14.597,8.699,16.304,5.287z"/>
		<path d="M10.487,45.271c0.8,3.211,1.836,6.357,3.017,9.447c0.12,0.313,0.252,0.62,0.377,0.931
			c0.289-0.165,0.588-0.311,0.904-0.416c-1.231-3.047-2.245-6.183-3.106-9.352c-0.953-3.506-1.567-7.094-2.338-10.643
			c-0.775-3.569-1.834-7.094-2.486-10.686c-0.115-0.634-1.079-0.365-0.964,0.266c0.597,3.292,1.553,6.528,2.288,9.792
			C8.979,38.159,9.608,41.742,10.487,45.271z"/>
		<path d="M48.461,51.544c-0.183,0.067-0.358,0.136-0.525,0.207c-0.736-2.794-2.086-5.418-3.155-8.115
			c-1.277-3.228-2.569-6.448-3.753-9.711c-1.199-3.305-2.328-6.642-3.339-10.008c-0.617-2.052-0.924-4.142-1.279-6.22
			c-0.041-0.176-0.072-0.352-0.094-0.529c-0.185-1.049-0.388-2.094-0.659-3.129c-0.099-0.376-0.519-0.433-0.776-0.254
			c-0.223-0.064-0.448-0.092-0.674-0.096c-0.255-0.336-0.806-0.233-0.9,0.109c-0.772,0.195-1.528,0.594-2.212,0.913
			c-3.038,1.419-6.052,2.82-9.175,4.049c-2.875,1.132-5.792,2.152-8.672,3.271c-1.604,0.624-4.244,0.931-5.398,2.301
			c-0.413,0.49,0.291,1.201,0.707,0.707c0.538-0.638,1.609-0.823,2.374-1.072c1.172-0.383,2.314-0.867,3.463-1.313
			c2.299-0.894,4.628-1.71,6.931-2.595c2.051-0.788,4.083-1.62,6.103-2.484c1.519-0.65,4.154-2.643,6.169-2.884
			c0.12,0.218,0.268,0.404,0.526,0.598c0.138,0.103,0.365,0.084,0.505,0c0.104-0.063,0.184-0.125,0.254-0.19
			c0.613,2.695,0.828,5.468,1.577,8.165c0.939,3.385,2.125,6.701,3.286,10.015c1.15,3.282,2.438,6.512,3.723,9.742
			c1.199,3.015,2.784,6.094,3.567,9.223c-0.062,0.043-0.122,0.079-0.184,0.126c-0.93,0.709-2.67,0.886-3.775,1.3
			c-2.522,0.948-5.078,1.802-7.611,2.723c-3.333,1.212-6.606,2.611-9.958,3.755c0.083,0.328,0.144,0.656,0.204,0.984
			c3.081-1.049,6.095-2.314,9.149-3.454c2.556-0.953,5.174-1.753,7.715-2.743c1.296-0.506,2.582-0.973,3.934-1.308
			c0.769-0.19,1.395-0.756,2.127-1.068C48.596,52.229,48.54,51.905,48.461,51.544z"/>
		<path d="M18.103,47.2c-0.007,2.08-0.048,4.159-0.05,6.239c0,0.558-0.073,1.203-0.07,1.832c0.414,0.153,0.819,0.371,1.201,0.646
			c-0.112-0.531-0.129-2.216-0.131-2.478c-0.015-2.079,0.043-4.16,0.05-6.239C19.105,46.555,18.105,46.556,18.103,47.2z"/>
		<path d="M37.699,39.304c-0.296-0.324-0.621-0.593-0.964-0.826c0.525-0.159,1.024-0.36,1.47-0.664
			c0.271,0.363,0.995,0.089,0.879-0.461c-0.026-0.123-0.08-0.23-0.116-0.347c0.03-0.167-0.033-0.33-0.149-0.446
			c-0.381-0.878-1.009-1.627-1.545-2.447c-0.939-1.437-1.703-2.985-2.402-4.548c-1.404-3.142-2.556-6.484-4.052-9.561
			c-0.908-1.869-2.629-0.101-3.726,0.627c-3.365,2.234-6.566,4.678-10,6.822c-0.545,0.34-0.044,1.206,0.505,0.863
			c2.66-1.661,5.303-3.371,7.828-5.233c0.974-0.718,2.109-1.367,3.016-2.159c1.569-1.37,1.832,0.71,2.322,1.875
			c1.027,2.44,2.19,4.837,3.244,7.271c0.573,1.323,1.246,2.575,1.962,3.825c0.553,0.964,1.402,1.88,1.873,2.919
			c-0.573,0.477-1.265,0.69-2.002,0.875c-0.126,0.032-0.208,0.101-0.265,0.183c-2.624-1.023-5.991-0.328-8.535,0.274
			c-0.627,0.148-0.361,1.112,0.266,0.964c2.313-0.547,4.63-1.003,6.999-0.535c3.252,0.643,4.483,3.587,3.539,6.504
			c-0.853,2.634-3.695,5.276-6.589,4.573c-3.668-0.892-5.172-5.94-3.943-8.948c0.244-0.597-0.724-0.854-0.964-0.266
			c-0.578,1.416-0.694,2.775-0.452,4.047c-0.035,0.025-0.071,0.044-0.105,0.075c-0.089,0.078-0.127,0.166-0.145,0.254
			c-0.42,0.401-0.876,0.764-1.463,0.875c-0.151,0.028-0.249,0.107-0.304,0.206c-0.091-0.177-0.152-0.246-0.353-0.42
			c-0.084-0.073-0.175-0.103-0.266-0.115c-0.549-0.665-0.924-1.58-1.336-2.258c-0.862-1.418-1.641-2.855-2.383-4.341
			c-1.578-3.159-2.927-6.427-4.115-9.751c-0.215-0.603-1.182-0.343-0.964,0.266c1.219,3.412,2.628,6.734,4.216,9.99
			c0.841,1.725,1.787,3.36,2.782,4.998c0.488,0.803,0.862,1.603,1.544,2.216c-1.435-0.523-2.912-0.91-4.265-1.655
			c-0.565-0.311-1.07,0.552-0.505,0.863c2.106,1.159,4.494,1.72,6.703,2.668c1.399,0.601,2.736,1.413,4.196,1.84
			c-2.638,2.037-5.963,3.93-8.921,5.202c-0.382,0.164-0.594,0.361-0.88,0.62c0.18,0.139,0.354,0.287,0.519,0.447
			c0.233-0.023,0.465-0.022,0.697-0.021c0.221-0.156,0.45-0.305,0.71-0.417c1.265-0.543,2.453-1.363,3.632-2.068
			c1.857-1.107,3.865-2.178,5.556-3.541c2.58,1.221,5.642-0.606,7.144-2.804C39.39,44.985,39.992,41.812,37.699,39.304z
			 M24.01,46.871c-0.098-0.043-0.199-0.075-0.297-0.115c0.107-0.061,0.19-0.169,0.238-0.293c0.109,0.139,0.28,0.232,0.499,0.191
			c0.695-0.13,1.261-0.542,1.772-1.011c0.466,1.236,1.275,2.369,2.323,3.363C26.985,48.442,25.446,47.503,24.01,46.871z"/>
	</g>
</g>
<g id="Layer_2">
	<path d="M73.252,35.883c-1.285-0.849-2.624-1.594-4-2.286c-0.271-0.137-0.523-0.013-0.657,0.183
		c-2.593-1.397-5.216-2.696-7.99-3.293c0.009-0.122-0.037-0.248-0.165-0.354c-1.63-1.359-3.499-2.318-5.077-3.771
		c-1.841-1.696-3.533-3.759-5.653-5.107c-0.545-0.347-1.047,0.519-0.504,0.863c2.026,1.289,3.705,3.31,5.45,4.951
		c1.318,1.24,2.836,2.105,4.257,3.15c-1.218-0.124-2.467-0.1-3.759,0.128c-2.561,0.453-4.349,2.139-5.698,4.198
		c-0.011-0.027-0.006-0.057-0.023-0.083c-0.237-0.37-0.513-0.683-0.865-0.95c-0.574-0.437-0.908-1.132-1.384-1.666
		c-0.988-1.107-1.813-2.344-2.843-3.413c-0.005-0.194-0.109-0.384-0.346-0.459c-1.491-0.47-2.736-1.488-2.731-3.225
		c0.003-1.253-0.08-2.476-0.216-3.721c-0.068-0.417-0.106-0.835-0.114-1.257c0.915-0.781,1.363-0.751,1.345,0.088
		c0.223,1.163,0.974,3.492,0.644,4.579c-0.188,0.619,0.778,0.881,0.965,0.266c0.356-1.175-0.025-1.841-0.31-3.008
		c-0.251-1.032-0.151-2.292-0.642-3.258c-0.285-0.563-0.873-1.189-1.451-1.283c-0.438-0.731-0.837-1.485-1.294-2.207
		c-0.223-0.351-0.474-0.686-0.708-1.029c-0.487-0.579-0.405-1.241,0.244-1.986c0.431,0.056,0.797,0.238,1.098,0.545
		c1.364,1.147,2.285,3.747,2.195,5.464c-0.033,0.645,0.967,0.642,1,0c0.103-1.973-0.999-5.336-2.978-6.555
		c0.14-0.073,0.244-0.207,0.235-0.417c-0.116-2.773,2.294,0.325,2.637,0.799c0.578,0.799,1.134,1.658,1.574,2.54
		c1.094,2.188,1.919,4.304,2.693,6.623c0.203,0.609,1.168,0.348,0.965-0.266c-1.129-3.385-2.313-7.47-4.878-10.1
		c-1.539-1.578-4.135-3.081-3.99,0.404c0.001,0.028,0.014,0.048,0.018,0.074c-0.184-0.055-0.372-0.096-0.568-0.112
		c-1.148-0.096-1.964,1.291-1.662,2.302c0.25,0.839,0.774,1.501,1.263,2.217c0.467,0.684,0.842,1.423,1.258,2.138
		c-0.049,0.071-0.097,0.152-0.143,0.244c-1.099,2.216-0.174,5.199-0.181,7.595c-0.006,2.124,1.484,2.861,3.23,3.431
		c0.014,0.091,0.047,0.182,0.128,0.265c0.955,0.987,1.685,2.145,2.621,3.151c0.445,0.479,0.805,1.019,1.187,1.547
		c0.271,0.377,0.681,0.604,0.986,0.955c0.026,0.226,0.18,0.436,0.474,0.436H49c0.017,0,0.029-0.011,0.045-0.013
		c-0.808,1.361-1.451,2.838-2.013,4.208c-0.723,1.761-2.083,4.19-2.175,6.119c-0.082,1.703,1.138,1.979,2.477,2.703
		c0.557,0.301,1.004,0.351,1.393,0.225c-0.111,1.852-0.551,4.108-0.209,5.934c0.131,0.695-1.484,0.774-2.042,1.036
		c-1.826,0.859,0.584,3.15,1.574,4.172c-0.005,0.158,0.078,0.307,0.198,0.408c-0.061,0.077-0.102,0.176-0.091,0.309
		c0.055,0.65,0.116,1.251,0.188,1.83c-0.077-0.034-0.159-0.055-0.236-0.091c-0.58-0.273-1.088,0.589-0.505,0.863
		c0.303,0.143,0.61,0.254,0.918,0.366c0.354,1.908,1.019,3.522,2.632,5.242c0.789,0.842,2.014,1.303,3.132,1.446
		c1.884,0.241,3.799,0.463,5.704,0.451c-0.221,1.138-0.377,2.295-0.462,3.451c-1.142-0.268-2.309-0.718-3.453-0.749
		c-1.804-0.05-3.62,0.359-5.351,0.85c-1.622,0.46-3.023,1.471-4.405,2.394c-1.556,1.04-3.396,1.523-5.081,2.308
		c-1.428,0.664-2.417,1.961-3.876,2.554c-1.434,0.583-3.821-2.979-4.695-3.897c-2.802-2.946-5.445-6.212-6.5-10.179
		c-0.059-0.221-0.219-0.325-0.392-0.347c0.151-2.039,0.242-3.977-0.1-6.025c-0.182-1.086-0.529-3.013-1.797-3.436
		c-2.623-0.874-2.719,3.226-2.797,5.704c-0.929-1.919-1.324-4.166-1.997-6.154c-0.32-0.946-0.853-2.937-2.16-2.937
		c-0.419,0-0.722,0.19-0.947,0.495c-0.119-0.171-0.313-0.263-0.537-0.207c-1.454,0.363-2.228,1.561-2.616,2.993
		c-0.111-0.204-0.237-0.395-0.383-0.565c-0.111-0.13-0.327-0.177-0.486-0.129c-1.832,0.558-2.064,2.599-1.863,4.573
		c-0.104-0.06-0.204-0.121-0.326-0.171c-0.16-0.065-0.371,0.015-0.486,0.129c-1.545,1.526-0.465,4.789,0.277,6.493
		c1.199,2.756,3.026,5.18,5.479,6.919c0.527,0.374,1.026-0.494,0.505-0.863c-1.923-1.363-3.283-3.137-4.433-5.173
		c-0.649-1.149-1.062-2.359-1.36-3.643c-0.531-0.967-0.352-1.602,0.539-1.905c0.131,0.487,0.266,0.972,0.406,1.456
		c0.177,0.622,1.105,0.361,0.964-0.266c-0.402-1.785-0.839-3.521-0.392-5.346c0.6-2.444,1.05,0.555,1.049,0.55
		c0.077,0.436,0.128,0.864,0.174,1.293c0.016,0.663,0.066,1.286,0.129,1.808c0.075,0.622,1.021,0.66,1,0
		c-0.023-0.75-0.031-1.67-0.124-2.584c0.049-1.787,0.431-3.748,1.748-4.428c0.103,0.406,0.168,0.822,0.206,1.246
		c-0.017,0.64,0.027,1.318,0.097,1.96c0.037,0.873,0.113,1.742,0.406,2.566c0.216,0.609,1.087,0.368,0.964-0.266
		c-0.26-1.346-0.483-2.646-0.428-4.023c0.025-0.38,0.083-0.755,0.172-1.125c0.301,0.001,0.603,0.001,0.904,0.002
		c0.308,0.709,0.579,1.431,0.814,2.166c0.807,2.382,1.139,4.96,2.653,7.022c0.232,0.316,0.817,0.348,0.914-0.119
		c0.2-0.963,0.273-1.861,0.307-2.849c0.019-0.483,0.051-0.967,0.098-1.448c-0.106-0.954,0.504-1.389,1.831-1.303
		c0.86,2.831,0.78,5.309,0.553,8.21c-0.03,0.389,0.322,0.537,0.617,0.455c0.967,3.228,2.804,5.644,4.898,8.327
		c1.263,1.617,2.866,2.939,4.117,4.58c0.702,0.921,1.406,1.386,2.522,1.509c0.247,0.027,0.5-0.01,0.752-0.085
		c-0.083,1.805,0.393,3.668,0.709,5.433c0.347,1.939,0.849,3.917,1.65,5.719c0.261,0.589,1.123,0.079,0.863-0.504
		c-1.356-3.05-2.443-7.51-2.217-10.834c0.007-0.106-0.021-0.188-0.062-0.26c0.337-0.212,0.647-0.454,0.902-0.665
		c1.849-1.53,3.913-1.984,5.963-3.078c2.167-1.156,3.938-2.631,6.354-3.316c2.905-0.824,5.208-0.204,8.039,0.259
		c0.328,0.054,0.615-0.134,0.633-0.482c0.065-1.342,0.268-2.796,0.538-4.118c0.392-0.122,0.504-0.634,0.128-0.885l-0.343-0.229
		c-0.272-0.182-0.533-0.049-0.657,0.172c-2.136,0.045-4.427-0.154-6.479-0.604c-2.571-0.563-3.603-2.854-4.082-5.223
		c0.184,0.046,0.36,0.105,0.549,0.143c1.005,0.196,1.985,0.034,2.989,0.158c0.453,0.056,0.635-0.572,0.354-0.854l-0.114-0.114
		c-0.193-0.193-0.428-0.172-0.604-0.055c-0.673-0.031-1.342,0.047-2.017-0.044c-0.455-0.062-0.901-0.158-1.337-0.288
		c-0.112-0.782-0.182-1.547-0.239-2.231c-0.015-0.174-0.103-0.296-0.217-0.376l0.07-0.07c0.202-0.202,0.179-0.502,0-0.707
		c-0.708-0.811-1.478-1.645-2.093-2.527c-0.251-0.359,1.917-0.876,2.215-0.979c0.156-0.055,0.316-0.174,0.35-0.35
		c0.404-2.162,0.116-4.654,0.246-6.876c0.014-0.242-0.117-0.392-0.29-0.452c0.19-0.206,0.369-0.461,0.545-0.76
		c0.851-1.446,1.543-2.934,2.349-4.376c-0.211,1.314-0.323,2.656-0.175,3.988c0.028,0.254,0.206,0.522,0.5,0.5
		c0.833-0.064,1.688-0.059,2.552-0.022c-0.146,0.123-0.295,0.236-0.45,0.315c-0.355,0.183-0.629,0.435-0.819,0.783
		c-0.165,0.3,0.035,0.797,0.432,0.752c0.83-0.094,1.532-0.542,2.068-1.175c0.15-0.177,0.15-0.382,0.074-0.55
		c0.012-0.012,0.025-0.024,0.038-0.036c2.9,0.265,5.861,0.938,8.559,1.579c-0.017,0.044-0.035,0.086-0.039,0.139
		c-0.145,1.96-0.289,4.262,0.132,6.19c0.074,0.337,0.46,0.431,0.734,0.299c1.897-0.154,2.752,0.692,2.563,2.539
		c0.024,1.327-2.97,2.087-3.71,1.804c-0.604-0.229-0.862,0.737-0.266,0.965c1.886,0.719,4.827-0.646,4.976-2.769
		c0.162-2.321-1.313-4.186-3.407-3.64c-0.271-1.716-0.146-3.713-0.021-5.389c0.013-0.177-0.057-0.3-0.16-0.379
		c0.025-0.059,0.046-0.122,0.046-0.192v-0.229c0-0.482-0.558-0.603-0.84-0.365c-2.372-0.563-4.896-1.137-7.411-1.442
		c0.549-0.382,1.109-0.739,1.718-1.075c0.561-0.32,0.061-1.175-0.504-0.863c-0.358,0.198-0.711,0.398-1.058,0.604
		c-0.447,0.256-0.896,0.511-1.343,0.767c-0.156,0.089-0.224,0.222-0.235,0.358c-0.024,0.021-0.049,0.04-0.072,0.061
		c-1.041-0.078-2.075-0.102-3.092-0.048c-0.12-1.97,0.287-3.989,0.705-5.864c0.128-0.579-0.583-0.833-0.914-0.385
		c-0.64,0.864-3.989,7.811-5.073,7.306c-2.114-0.984-1.78-2.437-1.133-4.238c0.713-1.984,1.455-3.949,2.344-5.863
		c1.615-3.482,4.051-5.804,7.983-6.176c3.938-0.372,7.807,1.796,11.145,3.598c0.273,0.147,0.529,0.021,0.66-0.181
		c1.344,0.679,2.653,1.409,3.911,2.238C73.287,37.103,73.788,36.236,73.252,35.883z"/>
	<path d="M85.729,41.229c-0.493-4.502-5.969-5.944-9.643-5.986c-0.534-0.006-0.619,0.671-0.269,0.911
		c-0.654,0.16-1.283,0.445-1.914,0.95c-1.521,1.217-1.976,3.917-1.975,5.717c0.002,3.957,3.965,6.665,7.605,6.45
		c0.274-0.016,0.541-0.056,0.803-0.108c0.89,1.677-1.347,11.012-1.748,12.333c-0.514,1.692-1.119,2.346-0.7,4.094
		c0.218,0.905,1.149,2.822-0.52,1.496c-0.728-0.579-1.421-1.172-2.175-1.718c-0.397-0.288-0.795,0.186-0.734,0.564
		c0.374,2.316-0.709,0.94-1.428,0.016c-0.465-0.6-0.688-0.855-1.385-1.088c-0.271-0.09-0.528,0.104-0.615,0.35
		c-0.344,0.981-0.442,2.071-0.687,3.086c-0.405,1.685-1.834-1.274-1.828-1.262c-0.413-0.924-0.677-1.892-0.978-2.853
		c-0.169-0.538-0.972-0.439-0.982,0.133c-0.027,1.396-0.105,2.789-0.113,4.186c-0.281-0.23-0.563-0.461-0.844-0.69
		c-0.144-0.479-0.26-0.965-0.347-1.457c-0.312-1.505-0.462-2.911-0.325-4.438c0.058-0.643-0.942-0.637-1,0
		c-0.174,1.933-0.217,7.793,2.413,8.32c0.854,0.171,1.16-1.111,1.252-2.53c0.425,1.049,0.988,1.974,1.73,2.265
		c-0.059,0.124-0.063,0.272,0.044,0.426c-0.015-0.021-0.794,1.339-0.814,1.382c-0.406,0.845-1.015,1.391-1.833,1.819
		c-1.347,0.708-3.11,0.571-4.578,0.504c-0.645-0.029-0.643,0.971,0,1c1.934,0.089,4.257,0.154,5.869-1.117
		c0.824-0.65,1.079-1.448,1.613-2.227c0.002,0.018,0.005,0.035,0.007,0.053c0.043,0.321,0.084,0.642,0.125,0.963
		c0.001,0.029,0.004,0.058,0.007,0.086c-0.478,0.098-0.427,0.923,0.15,0.985c0.585,0.063,0.871-0.41,0.853-0.94
		c-0.033-0.916-0.237-1.85-0.353-2.76c-0.008-0.06-0.03-0.107-0.052-0.156c1.167-0.446,1.233-2.48,1.472-3.83
		c0.857,0.894,1.832,3.152,3.07,2.812c0.805-0.222,0.872-1.066,0.771-1.899c0.85,0.774,1.783,1.636,2.811,1.746
		c0.178,0.019,0.341-0.111,0.432-0.248c0.625-0.937,0.142-2.227-0.063-3.242c-0.295-1.456,0.536-3.023,0.948-4.381
		c0.417-1.371,0.597-2.858,0.847-4.268c0.402-2.273,0.742-4.668,0.798-6.975c0.008-0.328-0.015-0.61-0.084-0.851
		C84.267,47.679,86.063,44.283,85.729,41.229z M80.517,48.009c-0.061-0.021-0.116-0.044-0.184-0.062
		c-0.286-0.074-0.49,0.09-0.575,0.303c-2.91,0.686-5.741-1.669-6.629-4.265c-0.568-1.665-0.007-3.566,0.718-5.077
		c0.978-2.037,3.079-2.006,4.981-1.865c0.313,0.023,0.471-0.203,0.478-0.446c1.847,0.43,3.5,1.315,4.717,3.018
		C86.309,42.814,83.645,46.76,80.517,48.009z"/>
	<path d="M63.275,29.332c-0.48,0.432,0.229,1.137,0.707,0.707c3.438-3.091,10.206,1.404,9.563,5.685
		c-0.095,0.63,0.869,0.902,0.965,0.266C75.305,30.697,67.509,25.526,63.275,29.332z"/>
	<path d="M55.115,50.213c-0.636,0.175-0.73,1.005-0.845,1.536c-0.291,0.773-0.381,1.615-0.128,2.423
		c0.149,0.477,0.614,0.549,1.019,0.366c0.485-0.221,0.685-0.868,0.732-1.338c0.07-0.693,0.264-1.34,0.26-2.05
		C56.151,50.639,55.659,50.063,55.115,50.213z"/>
	<path d="M55.31,63.031c0.515-0.377,0.017-1.245-0.504-0.863c-0.519,0.38-1.023,0.729-1.138,1.406
		c-0.122,0.725,0.225,1.327,0.794,1.743c0.521,0.382,1.019-0.486,0.504-0.863c-0.266-0.195-0.417-0.543-0.275-0.864
		C54.801,63.342,55.102,63.185,55.31,63.031z"/>
	<path d="M52.104,93.711c0.554-0.093,0.426-1.053-0.133-0.982c-0.044,0.006-0.088,0.015-0.133,0.021c0-0.001,0-0.002,0-0.003
		c-0.007,0.001-0.012,0.005-0.019,0.006c-3.322,0.433-6.56,1.297-9.863,1.844c-3.733,0.616-9.273,1.557-12.658-0.546
		c-3.224-2.003-5.254-6.098-7.492-9.047c-2.348-3.095-4.526-6.26-5.468-10.078c-0.154-0.626-1.119-0.36-0.964,0.266
		c0.965,3.915,3.179,7.126,5.568,10.317c2.255,3.011,4.278,6.646,7.3,8.98c2.896,2.235,6.647,1.765,10.092,1.532
		c4.091-0.277,8.028-1.402,12.054-2.06c-1.081,2.48,0.552,7.962,0.985,9.687c0.157,0.625,1.122,0.36,0.965-0.266
		C51.954,101.85,49.838,94.089,52.104,93.711z"/>
	<path d="M83.147,95.782c-0.599-2.962-1.271-5.902-1.837-8.872c-1.11-5.824-2.055-11.659-3.714-17.357
		c-0.181-0.618-1.146-0.354-0.965,0.266c1.491,5.119,2.375,10.327,3.372,15.558c0.511,2.679,0.989,5.365,1.592,8.025
		c0.498,2.193,1.172,4.569,1.377,6.885c-0.296,0.002-0.605,0.243-0.513,0.618c0.153,0.617,0.244,1.2,0.623,1.719
		c0.293,0.401,0.898,0.267,0.932-0.252C84.153,100.185,83.578,97.913,83.147,95.782z"/>
	<g>
		<path d="M82.038,16.753c-0.054-0.195-0.266-0.394-0.482-0.367c-0.693,0.086-0.922,0.624-1.212,1.156
			c-0.147,0.037-0.287,0.11-0.399,0.248c-0.156,0.191-0.146,0.413-0.053,0.586c-0.05,0.112-0.103,0.223-0.131,0.343
			c-0.072,0.301,0.02,0.875,0.404,0.935c0.459,0.072,0.891-0.193,1.133-0.581c0.189-0.242,0.318-0.554,0.422-0.813
			C81.895,17.823,82.167,17.227,82.038,16.753z"/>
		<path d="M85.7,19.264c-0.058-0.155-0.134-0.307-0.248-0.446c-0.548-0.668-1.294-0.241-1.522,0.449
			c-0.08,0.241-0.103,0.538-0.08,0.831c-0.086,0.104-0.134,0.236-0.129,0.376c-0.021,0.055-0.037,0.113-0.037,0.183v0.229
			c0,0.375,0.372,0.563,0.692,0.445c0.015,0.004,0.024,0.014,0.04,0.018c0.354,0.075,0.632,0.062,0.88-0.233
			c0.292-0.346,0.474-0.779,0.498-1.213C85.853,19.661,85.839,19.434,85.7,19.264z"/>
		<path d="M89.291,21.415c-0.409,0.253-0.701,0.816-0.782,1.299c-0.303,0.186-0.338,0.773,0.113,0.94
			c0.146,0.054,0.29,0.048,0.423,0.011c0.127,0.134,0.295,0.199,0.529,0.104c0.334-0.136,0.641-0.331,0.752-0.697
			c0.028-0.091,0.035-0.286,0.061-0.34c0.084-0.185,0.188-0.429,0.173-0.638C90.513,21.441,89.863,21.06,89.291,21.415z"/>
		<path d="M97.694,20.148c0.79-1.731,1.26-4.216,0.293-5.8c-0.645-1.055-1.421-1.72-2.534-2.256
			c-0.64-0.309-3.813-0.162-3.968-0.857c-0.479-2.156-1.763-3.68-4.095-3.221c-0.997,0.196-1.722,0.854-2.194,1.683
			c-2.04-2.578-7.502-3.243-9.351,0.126c-0.154-0.065-0.344-0.065-0.485,0.002c-0.3,0.142-0.344,0.173-0.559,0.421
			c-0.324,0.374,0.021,0.876,0.39,0.865c0.01,0.154,0.021,0.313,0.024,0.467c-3.052-1.304-4.467,2.881-4.506,5.306
			c-0.017,1.053,0.071,3.494,1.023,4.231c0.939,0.727,1.67,0.638,2.553,0.343c-0.606,2.325-0.694,4.923,1.01,6.852
			c1.674,1.894,3.551,2.147,5.344,0.745c0.432,1.191,1.091,2.597,2.283,2.986c1.517,0.496,3.131-0.344,4.39-1.348
			c-1.186,1.971-0.212,5.724,1.996,6.331c4.236,1.166,5.704-4.03,5.221-7.299C99.704,30.185,102.108,20.599,97.694,20.148z
			 M94.031,28.632c-0.368-0.1-0.715,0.246-0.615,0.615c0.727,2.674,0.225,6.472-3.243,6.892c-2.068,0.25-3.189-4.467-1.509-5.45
			c0.339-0.198,0.308-0.659,0-0.863c-0.13-0.169-0.261-0.338-0.392-0.507c-0.147-0.295-0.565-0.313-0.785-0.101
			c-1.077,1.043-3.721,3.005-5.157,0.901c-0.481-0.705-0.718-1.271-0.978-2.052c-0.117-0.352-0.559-0.497-0.836-0.221
			c-2.461,2.456-4.662,0.001-5.416-2.079c-0.597-1.648-0.092-3.392,0.423-4.978c0.112-0.347-0.26-0.743-0.615-0.615
			c-5.508,1.983-3.196-9.231-0.005-7.658c0.136,0.067,0.266,0.066,0.38,0.029c0.206,0.397,0.929,0.32,0.943-0.232
			c0.152-5.54,7.125-4.414,8.475-1.376c-0.182,0.783-0.179,1.604,0.029,2.309c0.15,0.509,0.788,0.441,0.965,0
			c0.342-0.857,0.354-1.652,0.136-2.363c0.564-1.574,2.063-2.831,3.837-1.397c0.686,0.552,0.78,1.687,0.962,2.504
			c0.132,0.588,0.48,0.717,0.964,0.92c0.244,0.104,0.587-0.002,0.837-0.071c1.47-0.403,2.916,0.129,4.026,1.09
			c1.757,1.52,0.986,4.79-0.019,6.476c-0.176,0.295,0.044,0.802,0.432,0.752C100.774,20.659,98.748,29.91,94.031,28.632z"/>
		<path d="M97.545,37.039c-0.795-0.896-2.085-0.985-3.189-1.11c-0.467-0.053-0.585,0.462-0.372,0.774
			c-1.548-0.006-2.433,1.709-2.391,3.308c0.054,2.026,1.744,3.936,3.742,4.115c2.439,0.219,3.444-1.945,3.521-4.04
			C98.896,38.979,98.252,37.834,97.545,37.039z M95.738,43.119c-1.405,0.17-2.424-0.984-2.919-2.157
			c-0.519-1.229-0.112-3.822,1.746-3.138c0.5,0.184,0.755-0.436,0.496-0.785c1.303,0.261,2.201,0.847,2.66,2.329
			C98.202,40.923,97.482,42.907,95.738,43.119z"/>
		<path d="M96.393,46.445c-0.754-1.418-2.317-1.203-3.546-0.62c-0.418,0.198-0.271,0.692,0.057,0.857
			c-0.135,0.014-0.263,0.083-0.351,0.236c-0.794,1.399-1.019,2.664,0.251,3.84c0.97,0.897,2.537,0.48,3.27-0.495
			C96.927,49.126,97.061,47.704,96.393,46.445z M95.577,49.179c-0.338,0.759-1.147,1.351-1.979,0.93
			c-1.168-0.59-0.659-1.843-0.182-2.685c0.17-0.3,0.001-0.577-0.24-0.691c0.058-0.006,0.115-0.016,0.175-0.044
			c0.789-0.374,1.613-0.586,2.178,0.261C95.974,47.618,95.886,48.483,95.577,49.179z"/>
		<path d="M90.381,50.582c-0.221-0.698-1.144-0.709-1.74-0.71c-0.645-0.001-0.645,0.999,0,1c0.265,0,0.523,0.005,0.781,0.071
			c-0.004,0.05-0.005,0.1-0.02,0.148c-0.031,0.16-0.088,0.316-0.144,0.469c-0.073,0.201-0.332,0.68-0.595,0.552
			c-0.286-0.14-0.713-0.42-0.355-0.7c0.507-0.397-0.206-1.1-0.707-0.707c-0.682,0.535-0.501,1.373,0.048,1.928
			c0.624,0.632,1.505,0.663,2.102,0.004C90.184,52.157,90.584,51.227,90.381,50.582z"/>
	</g>
</g>
</svg>
